<?xml version="1.0" standalone="no"?>
<!DOCTYPE svg PUBLIC "-//W3C//DTD SVG 20010904//EN"
 "http://www.w3.org/TR/2001/REC-SVG-20010904/DTD/svg10.dtd">
<svg version="1.0" xmlns="http://www.w3.org/2000/svg"
 width="240.000000pt" height="240.000000pt" viewBox="0 0 240.000000 240.000000"
 preserveAspectRatio="xMidYMid meet">

<g transform="translate(0.000000,240.000000) scale(0.100000,-0.100000)"
fill="#000000" stroke="none">
<path d="M1064 1788 c-45 -21 -57 -89 -23 -132 16 -21 29 -26 64 -26 69 0 104
58 73 125 -7 15 -17 24 -25 21 -8 -3 -12 -2 -9 3 13 20 -45 27 -80 9z"/>
<path d="M1315 1642 c-30 -10 -49 -23 -47 -30 1 -8 -2 -11 -7 -8 -10 6 -61
-49 -61 -65 0 -5 -18 0 -40 11 -90 46 -207 13 -248 -71 -16 -31 -32 -47 -69
-64 -156 -72 -191 -245 -75 -365 58 -60 133 -86 218 -75 l54 6 0 -80 c0 -65
-3 -81 -15 -81 -10 0 1 -24 33 -75 26 -41 50 -75 53 -75 3 0 27 32 54 71 41
62 45 73 31 81 -12 7 -16 25 -16 77 0 37 2 70 5 72 2 3 20 3 40 1 32 -4 35 -7
35 -38 0 -27 -4 -34 -19 -34 -17 0 -12 -12 32 -79 l52 -79 43 64 c23 36 40 70
36 76 -4 6 -3 8 4 4 6 -3 13 -2 17 4 3 5 -3 10 -15 10 -18 0 -21 5 -18 36 l3
37 60 2 c105 5 181 53 221 140 44 92 27 173 -52 252 -49 49 -52 55 -47 91 11
81 -53 167 -142 191 -52 14 -60 14 -120 -7z m-206 -277 c26 -13 41 -33 41 -56
0 -15 -46 -10 -60 6 -20 24 -67 19 -86 -10 -18 -28 -14 -85 7 -111 22 -27 78
-11 91 26 5 17 48 -1 48 -20 0 -23 -41 -57 -79 -65 -38 -8 -95 16 -117 50 -10
15 -17 46 -17 71 0 95 90 152 172 109z m261 0 c82 -42 80 -179 -4 -219 -42
-20 -67 -20 -110 -2 -67 28 -91 99 -57 169 12 24 31 49 44 55 32 16 94 14 127
-3z m158 -184 c3 -15 -3 -30 -14 -38 -16 -12 -16 -13 -1 -13 10 0 17 -8 17
-17 0 -15 -9 -18 -50 -18 -58 0 -63 12 -20 48 17 14 30 27 30 30 0 2 -14 1
-31 -1 -29 -4 -30 -3 -19 17 9 18 19 22 48 19 31 -2 38 -7 40 -27z"/>
<path d="M1267 1317 c-10 -6 -20 -29 -23 -49 -5 -30 -2 -41 19 -62 25 -24 75
-38 62 -16 -3 5 0 7 9 4 35 -13 50 90 18 119 -22 20 -61 22 -85 4z"/>
<path d="M772 1578 c-18 -18 -14 -73 6 -91 25 -23 58 -21 82 3 24 24 25 48 4
78 -17 25 -71 31 -92 10z"/>
</g>
</svg>
