<?xml version="1.0" standalone="no"?>
<!DOCTYPE svg PUBLIC "-//W3C//DTD SVG 20010904//EN"
 "http://www.w3.org/TR/2001/REC-SVG-20010904/DTD/svg10.dtd">
<svg version="1.0" xmlns="http://www.w3.org/2000/svg"
 width="512.000000pt" height="512.000000pt" viewBox="0 0 512.000000 512.000000"
 preserveAspectRatio="xMidYMid meet">

<g transform="translate(0.000000,512.000000) scale(0.100000,-0.100000)"
fill="#000000" stroke="none">
<path d="M2675 5065 c-389 -62 -706 -278 -904 -615 -49 -82 -56 -90 -89 -96
-212 -35 -403 -145 -517 -297 -82 -108 -133 -227 -155 -358 l-12 -67 -49 -6
c-133 -18 -310 -89 -442 -177 -80 -54 -222 -196 -276 -276 -252 -375 -252
-853 0 -1224 129 -190 350 -353 567 -419 87 -27 127 -22 168 21 24 25 29 39
29 79 0 68 -29 95 -145 136 -136 49 -222 104 -325 208 -100 101 -158 193 -199
316 -78 234 -55 472 67 690 57 102 205 250 307 307 123 69 280 113 403 113 58
0 102 21 121 58 7 15 16 71 18 127 6 122 32 204 95 298 94 142 271 236 441
237 83 0 102 17 166 145 137 272 371 464 661 542 88 23 119 26 255 26 136 0
167 -3 255 -26 189 -51 393 -175 506 -309 167 -196 245 -395 256 -658 6 -135
6 -135 38 -167 20 -20 46 -34 71 -38 251 -41 434 -132 587 -295 122 -129 201
-274 244 -446 24 -95 24 -333 0 -428 -43 -172 -126 -323 -246 -449 -78 -81
-202 -171 -287 -208 -117 -50 -132 -60 -149 -96 -41 -85 30 -184 122 -170 46
8 211 87 294 142 257 171 447 462 510 780 21 103 18 349 -5 455 -77 357 -305
659 -622 822 -93 48 -255 108 -293 108 -16 0 -21 6 -21 28 0 57 -31 230 -56
310 -121 398 -448 723 -843 838 -178 52 -377 66 -546 39z"/>
<path d="M2380 2665 c-506 -74 -923 -424 -1074 -902 -83 -263 -83 -543 0 -806
107 -338 365 -633 687 -786 300 -143 648 -166 971 -64 334 105 633 365 785
686 142 300 166 650 64 970 -125 396 -455 727 -849 850 -184 58 -409 78 -584
52z m-97 -884 c32 -13 76 -40 98 -60 35 -34 39 -43 39 -85 0 -41 -5 -53 -33
-81 -47 -47 -79 -53 -141 -25 -117 52 -193 48 -263 -13 -96 -85 -96 -229 0
-314 36 -31 90 -53 135 -53 28 0 83 22 102 42 77 74 179 61 216 -28 21 -50 8
-91 -48 -147 -70 -70 -142 -100 -253 -105 -73 -3 -102 0 -154 18 -125 42 -216
121 -271 235 -119 245 3 532 265 624 81 29 223 25 308 -8z m859 8 c122 -41
213 -121 268 -234 109 -225 13 -493 -214 -601 -276 -131 -591 40 -639 346 -32
210 104 424 311 491 80 25 196 25 274 -2z"/>
<path d="M2939 1556 c-97 -35 -144 -106 -137 -210 4 -75 31 -120 91 -160 106
-68 246 -26 298 89 74 162 -86 341 -252 281z"/>
</g>
</svg>
