<?xml version="1.0" standalone="no"?>
<!DOCTYPE svg PUBLIC "-//W3C//DTD SVG 20010904//EN"
 "http://www.w3.org/TR/2001/REC-SVG-20010904/DTD/svg10.dtd">
<svg version="1.0" xmlns="http://www.w3.org/2000/svg"
 width="512.000000pt" height="512.000000pt" viewBox="0 0 512.000000 512.000000"
 preserveAspectRatio="xMidYMid meet">

<g transform="translate(0.000000,512.000000) scale(0.100000,-0.100000)"
fill="#000000" stroke="none">
<path d="M2330 5114 c-345 -44 -611 -173 -850 -413 -119 -120 -179 -200 -255
-343 -52 -98 -107 -258 -131 -379 l-17 -86 -93 -7 c-375 -26 -709 -252 -875
-591 -279 -570 3 -1251 604 -1456 61 -22 122 -39 135 -39 l23 0 -3 152 -3 151
-52 18 c-115 39 -195 90 -289 184 -77 76 -98 106 -137 185 -57 115 -76 187
-84 305 -13 215 63 411 222 570 117 117 236 181 391 211 102 19 180 18 310 -6
160 -29 144 -41 144 109 0 256 57 454 187 650 307 460 917 622 1411 372 320
-162 528 -445 597 -811 10 -52 21 -99 25 -103 4 -5 47 1 96 13 349 83 646 6
878 -226 104 -105 176 -228 223 -381 24 -79 26 -104 26 -238 0 -134 -2 -159
-26 -238 -90 -294 -303 -511 -585 -597 l-72 -22 0 -153 0 -153 63 14 c457 104
804 455 903 916 24 112 29 286 11 403 -77 497 -439 881 -932 986 -62 14 -132
20 -226 20 l-136 1 -18 57 c-9 31 -42 105 -72 164 -196 385 -560 659 -986 742
-80 16 -337 28 -407 19z"/>
<path d="M1624 2720 c-226 -59 -397 -231 -455 -458 -17 -69 -19 -113 -19 -521
0 -497 4 -534 64 -656 87 -174 251 -301 438 -339 146 -30 268 -13 408 55 192
95 321 288 343 512 l5 48 -152 -3 -151 -3 -7 -48 c-15 -105 -86 -199 -187
-245 -81 -38 -193 -37 -272 1 -66 32 -132 99 -162 165 -22 46 -22 57 -22 502
0 521 -1 513 87 606 69 73 130 99 238 99 68 0 94 -4 131 -23 103 -50 172 -140
187 -243 l7 -54 150 0 150 0 -3 45 c-5 78 -23 143 -64 229 -54 114 -168 229
-279 284 -136 67 -295 84 -435 47z"/>
<path d="M3064 2720 c-232 -61 -411 -248 -460 -480 -13 -62 -15 -151 -12 -539
3 -458 3 -467 26 -531 90 -252 307 -419 567 -437 241 -16 486 128 592 347 68
140 68 141 68 660 0 421 -2 471 -18 530 -64 225 -255 409 -473 455 -93 20
-204 18 -290 -5z m288 -308 c73 -36 124 -87 160 -160 l33 -67 3 -405 c4 -512
-2 -554 -99 -651 -65 -65 -138 -94 -234 -93 -67 0 -89 5 -133 27 -75 39 -127
90 -159 155 l-28 57 -3 439 c-3 487 -1 507 61 587 75 99 166 142 283 136 46
-3 87 -11 116 -25z"/>
<path d="M4288 1377 c-79 -27 -165 -84 -215 -141 -75 -87 -122 -222 -123 -348
l0 -58 150 0 150 0 0 48 c0 68 17 117 53 159 118 135 339 43 325 -134 -3 -33
-13 -65 -25 -81 -11 -15 -123 -98 -249 -184 -126 -86 -252 -178 -280 -205 -87
-83 -124 -187 -124 -349 l0 -84 490 0 490 0 0 150 0 150 -265 2 -264 3 178
123 c182 125 263 198 299 268 97 191 56 424 -102 572 -65 60 -144 105 -217
121 -78 18 -197 13 -271 -12z"/>
</g>
</svg>
