<?xml version="1.0" ?><svg viewBox="0 0 512 512" xmlns="http://www.w3.org/2000/svg"><g id="Blood_Count"><path d="M434.73,428.9956l-59.2362-58.8313a173.6223,173.6223,0,0,0,50.17-122.1872c0-96.0528-78.1445-174.1973-174.1968-174.1973S77.27,151.9243,77.27,247.9771,155.4148,422.1733,251.467,422.1733a173.4633,173.4633,0,0,0,114.5621-43.0856L425.5686,438.22ZM378.6866,149.1a25.3539,25.3539,0,0,1-40.6693,17.6781l7.919-10.3086a12.35,12.35,0,0,0,18.7324-14.9726l5.452-2.5116Q374.6051,143.8632,378.6866,149.1Zm-216.6473-7.6031,11.8076-5.44a25.3529,25.3529,0,0,1-38.4585,30.7217l7.918-10.31a12.3492,12.3492,0,0,0,18.7329-14.9717Zm0,202.6289,11.8076-5.44a25.3179,25.3179,0,0,1-22.0234,35.915q-6.38-5.0312-12.2224-10.6789l3.7053-4.8249a12.3492,12.3492,0,0,0,18.7329-14.9717Zm4.94,41.0749a39.6579,39.6579,0,0,0-3.0871-73.1169,39.789,39.789,0,0,0-49.6439,20.3886,160.8673,160.8673,0,0,1-.0045-168.9838,39.6584,39.6584,0,0,0,73.1177-3.0864,39.7892,39.7892,0,0,0-20.39-49.6441,160.8668,160.8668,0,0,1,168.985-.0044,39.6579,39.6579,0,0,0,3.0863,73.1172,39.7918,39.7918,0,0,0,49.6442-20.389,160.2206,160.2206,0,0,1,23.9774,84.4955c0,88.8837-72.3125,161.1962-161.1968,161.1962A160.22,160.22,0,0,1,166.9789,385.2Z"/><path d="M237.7273,183.8706a39.6646,39.6646,0,1,0-22.2856-20.6133A39.4062,39.4062,0,0,0,237.7273,183.8706Zm6.8935-27.4023a12.3493,12.3493,0,0,0,18.733-14.9717l11.8076-5.44a25.353,25.353,0,0,1-38.4585,30.7217Z"/><path d="M163.8918,210.7681a39.6646,39.6646,0,1,0,23.4693,50.9482A39.4821,39.4821,0,0,0,163.8918,210.7681ZM174.6111,256.76a25.361,25.361,0,0,1-39.2227,11.333l7.918-10.3106a12.3492,12.3492,0,0,0,18.7329-14.9717l11.8076-5.4394A25.19,25.19,0,0,1,174.6111,256.76Z"/><path d="M265.2063,312.0835a39.6641,39.6641,0,1,0,22.2861,20.6133A39.6846,39.6846,0,0,0,265.2063,312.0835Zm10.7192,45.9912a25.3611,25.3611,0,0,1-39.2226,11.333l7.9179-10.31a12.3493,12.3493,0,0,0,18.733-14.9717l11.8076-5.44A25.19,25.19,0,0,1,275.9255,358.0747Z"/><path d="M237.7273,285.186a39.6657,39.6657,0,1,0-23.4688-50.9482A39.7092,39.7092,0,0,0,237.7273,285.186Zm6.8935-27.4033a12.3493,12.3493,0,0,0,18.733-14.9717l11.8076-5.4394a25.3531,25.3531,0,0,1-38.4585,30.7217Z"/><path d="M389.99,261.7163a39.6585,39.6585,0,1,0-37.25,25.9268A39.71,39.71,0,0,0,389.99,261.7163Zm-12.75-4.956a25.3591,25.3591,0,0,1-39.2227,11.332l7.919-10.3086a12.35,12.35,0,0,0,18.7324-14.9727l11.8076-5.4394A25.1893,25.1893,0,0,1,377.24,256.76Z"/></g></svg>