<?xml version="1.0" standalone="no"?>
<!DOCTYPE svg PUBLIC "-//W3C//DTD SVG 20010904//EN"
 "http://www.w3.org/TR/2001/REC-SVG-20010904/DTD/svg10.dtd">
<svg version="1.0" xmlns="http://www.w3.org/2000/svg"
 width="100.000000pt" height="100.000000pt" viewBox="0 0 100.000000 100.000000"
 preserveAspectRatio="xMidYMid meet">

<g transform="translate(0.000000,100.000000) scale(0.100000,-0.100000)"
fill="#000000" stroke="none">
<path d="M434 984 c-17 -8 -36 -26 -43 -40 -7 -16 -11 -106 -11 -258 l0 -232
-48 -50 c-98 -102 -97 -229 3 -329 102 -103 243 -101 338 5 92 102 90 226 -5
324 l-48 50 0 232 c0 153 -4 242 -11 258 -23 50 -113 71 -175 40z m124 -40
c18 -12 22 -25 22 -70 l0 -54 -80 0 -80 0 0 54 c0 64 21 86 80 86 20 0 46 -7
58 -16z m22 -184 c0 -17 -7 -20 -40 -20 -33 0 -40 -3 -40 -20 0 -17 7 -20 40
-20 33 0 40 -3 40 -20 0 -13 -7 -20 -20 -20 -13 0 -20 -7 -20 -20 0 -13 7 -20
20 -20 13 0 20 -7 20 -20 0 -17 -7 -20 -40 -20 -33 0 -40 -3 -40 -20 0 -17 7
-20 40 -20 l40 0 0 -58 c0 -54 2 -59 30 -76 17 -10 43 -36 58 -59 23 -34 27
-51 27 -107 0 -55 -4 -73 -27 -107 -41 -62 -90 -88 -168 -88 -78 0 -127 26
-168 88 -23 34 -27 52 -27 107 0 56 4 73 27 107 15 23 41 49 58 59 l30 18 0
178 0 178 80 0 c73 0 80 -2 80 -20z"/>
</g>
</svg>
