<svg id="splitsvg" version="1.1" xmlns="http://www.w3.org/2000/svg" xmlns:xlink="http://www.w3.org/1999/xlink" width="1380" height="860"><g id="svgg"><path id="path0" d="M113.000 18.800 C 112.857 19.032,110.663 19.200,107.776 19.200 C 104.725 19.200,102.800 19.355,102.800 19.600 C 102.800 19.826,101.667 20.000,100.200 20.000 C 98.733 20.000,97.600 20.174,97.600 20.400 C 97.600 20.620,96.700 20.800,95.600 20.800 C 94.500 20.800,93.600 20.980,93.600 21.200 C 93.600 21.420,92.880 21.600,92.000 21.600 C 91.120 21.600,90.400 21.780,90.400 22.000 C 90.400 22.220,89.680 22.400,88.800 22.400 C 87.920 22.400,87.200 22.580,87.200 22.800 C 87.200 23.020,86.581 23.200,85.824 23.200 C 85.067 23.200,84.336 23.380,84.200 23.600 C 84.064 23.820,83.423 24.000,82.776 24.000 C 82.129 24.000,81.600 24.180,81.600 24.400 C 81.600 24.620,81.195 24.799,80.700 24.798 C 79.630 24.796,75.857 26.071,75.667 26.500 C 75.593 26.665,75.109 26.800,74.590 26.800 C 74.072 26.800,73.536 26.980,73.400 27.200 C 73.264 27.420,72.803 27.600,72.376 27.600 C 71.949 27.600,71.600 27.780,71.600 28.000 C 71.600 28.220,71.240 28.400,70.800 28.400 C 70.360 28.400,70.000 28.580,70.000 28.800 C 70.000 29.020,69.640 29.200,69.200 29.200 C 68.760 29.200,68.400 29.380,68.400 29.600 C 68.400 29.820,68.057 30.000,67.638 30.000 C 66.822 30.000,63.488 31.601,63.267 32.100 C 63.193 32.265,62.878 32.400,62.567 32.400 C 62.255 32.400,62.000 32.580,62.000 32.800 C 62.000 33.020,61.640 33.200,61.200 33.200 C 60.760 33.200,60.400 33.380,60.400 33.600 C 60.400 33.820,60.130 34.000,59.800 34.000 C 59.470 34.000,59.200 34.180,59.200 34.400 C 59.200 34.620,58.880 34.800,58.488 34.800 C 58.097 34.800,57.517 35.160,57.200 35.600 C 56.883 36.040,56.303 36.400,55.912 36.400 C 55.520 36.400,55.200 36.580,55.200 36.800 C 55.200 37.020,54.964 37.200,54.675 37.200 C 54.387 37.200,53.764 37.560,53.292 38.000 C 52.820 38.440,52.291 38.800,52.117 38.801 C 51.943 38.801,51.170 39.341,50.400 40.000 C 49.630 40.659,48.841 41.199,48.647 41.199 C 48.453 41.200,47.958 41.588,47.547 42.061 C 47.136 42.535,46.800 42.790,46.800 42.628 C 46.800 42.327,44.509 44.059,42.917 45.565 C 42.431 46.024,41.941 46.400,41.828 46.400 C 41.553 46.400,27.200 60.632,27.200 60.904 C 27.200 61.022,26.757 61.631,26.216 62.259 C 23.770 65.094,23.201 65.820,23.200 66.104 C 23.200 66.271,22.660 66.972,22.000 67.663 C 21.340 68.354,20.800 69.122,20.800 69.371 C 20.800 69.620,20.440 70.083,20.000 70.400 C 19.560 70.717,19.200 71.257,19.200 71.600 C 19.200 71.943,18.840 72.483,18.400 72.800 C 17.960 73.117,17.600 73.682,17.600 74.055 C 17.600 74.428,17.465 74.793,17.300 74.867 C 16.845 75.069,15.200 77.510,15.200 77.984 C 15.200 78.213,15.020 78.400,14.800 78.400 C 14.580 78.400,14.400 78.760,14.400 79.200 C 14.400 79.640,14.265 80.001,14.100 80.003 C 13.935 80.005,13.593 80.410,13.341 80.903 C 10.580 86.292,8.849 90.028,8.619 91.095 C 8.465 91.808,8.172 92.494,7.969 92.619 C 7.766 92.745,7.600 93.287,7.600 93.824 C 7.600 94.361,7.420 94.800,7.200 94.800 C 6.980 94.800,6.800 95.160,6.800 95.600 C 6.800 96.040,6.620 96.400,6.400 96.400 C 6.180 96.400,6.000 96.940,6.000 97.600 C 6.000 98.260,5.820 98.800,5.600 98.800 C 5.380 98.800,5.200 99.340,5.200 100.000 C 5.200 100.660,5.020 101.200,4.800 101.200 C 4.580 101.200,4.400 101.740,4.400 102.400 C 4.400 103.060,4.220 103.600,4.000 103.600 C 3.780 103.600,3.600 104.320,3.600 105.200 C 3.600 106.080,3.420 106.800,3.200 106.800 C 2.980 106.800,2.800 107.419,2.800 108.176 C 2.800 108.933,2.620 109.664,2.400 109.800 C 2.180 109.936,2.000 110.656,2.000 111.400 C 2.000 112.144,1.820 112.864,1.600 113.000 C 1.380 113.136,1.200 114.101,1.200 115.144 C 1.200 116.187,0.975 117.265,0.700 117.540 C 0.314 117.926,0.200 122.303,0.200 136.687 C 0.200 151.248,0.310 155.370,0.700 155.500 C 1.010 155.603,1.200 156.416,1.200 157.633 C 1.200 158.715,1.380 159.600,1.600 159.600 C 1.820 159.600,2.000 160.399,2.000 161.376 C 2.000 162.353,2.180 163.264,2.400 163.400 C 2.620 163.536,2.800 164.267,2.800 165.024 C 2.800 165.781,2.980 166.400,3.200 166.400 C 3.420 166.400,3.600 167.030,3.600 167.800 C 3.600 168.570,3.780 169.200,4.000 169.200 C 4.220 169.200,4.400 169.740,4.400 170.400 C 4.400 171.060,4.580 171.600,4.800 171.600 C 5.020 171.600,5.200 172.140,5.200 172.800 C 5.200 173.460,5.380 174.000,5.600 174.000 C 5.820 174.000,6.000 174.450,6.000 175.000 C 6.000 175.550,6.180 176.000,6.400 176.000 C 6.620 176.000,6.800 176.540,6.800 177.200 C 6.800 177.860,6.980 178.400,7.200 178.400 C 7.420 178.400,7.600 178.760,7.600 179.200 C 7.600 179.640,7.780 180.000,8.000 180.000 C 8.220 180.000,8.400 180.540,8.400 181.200 C 8.400 181.860,8.591 182.400,8.824 182.400 C 9.057 182.400,9.163 182.536,9.060 182.702 C 8.958 182.869,9.217 183.711,9.637 184.574 C 10.057 185.437,10.400 186.381,10.400 186.671 C 10.400 186.962,10.580 187.200,10.800 187.200 C 11.020 187.200,11.200 187.560,11.200 188.000 C 11.200 188.440,11.346 188.800,11.525 188.800 C 11.704 188.800,12.098 189.430,12.400 190.200 C 12.702 190.970,13.096 191.600,13.275 191.600 C 13.454 191.600,13.600 191.960,13.600 192.400 C 13.600 192.840,13.780 193.200,14.000 193.200 C 14.220 193.200,14.400 193.560,14.400 194.000 C 14.400 194.440,14.580 194.800,14.800 194.800 C 15.020 194.800,15.200 195.078,15.200 195.417 C 15.200 195.756,15.560 196.420,16.000 196.892 C 16.440 197.364,16.800 197.987,16.800 198.275 C 16.800 198.564,16.980 198.800,17.200 198.800 C 17.420 198.800,17.600 199.083,17.600 199.429 C 17.600 200.596,18.636 201.243,19.798 200.801 C 20.478 200.542,35.940 200.400,63.358 200.400 L 105.865 200.400 106.420 199.300 C 106.726 198.695,107.476 197.448,108.088 196.528 C 108.699 195.608,109.200 194.741,109.200 194.600 C 109.200 194.459,109.740 193.559,110.400 192.600 C 111.060 191.641,111.600 190.741,111.600 190.600 C 111.600 190.459,112.140 189.559,112.800 188.600 C 113.460 187.641,114.000 186.777,114.000 186.681 C 114.000 186.584,115.251 184.457,116.781 181.953 C 118.310 179.449,120.099 176.477,120.756 175.349 C 123.769 170.179,130.304 167.815,135.466 170.028 C 139.417 171.722,139.666 172.034,149.952 188.138 C 152.178 191.624,154.000 194.537,154.000 194.611 C 154.000 194.686,155.260 196.648,156.800 198.972 C 158.340 201.296,159.600 203.378,159.600 203.599 C 159.600 203.819,159.780 204.000,160.000 204.000 C 160.220 204.000,160.400 204.168,160.400 204.374 C 160.400 204.580,161.975 207.183,163.900 210.159 C 170.070 219.697,172.597 223.736,172.729 224.275 C 172.894 224.944,174.001 224.966,173.997 224.300 C 173.996 224.025,174.877 222.000,175.956 219.800 C 179.167 213.254,182.800 205.641,182.800 205.458 C 182.800 205.270,187.455 195.462,190.233 189.797 C 191.205 187.815,192.000 185.970,192.000 185.697 C 192.000 185.424,192.180 185.200,192.400 185.200 C 192.620 185.200,192.799 184.975,192.797 184.700 C 192.795 184.425,193.497 182.760,194.356 181.000 C 195.216 179.240,196.837 175.867,197.959 173.504 L 200.000 169.208 200.000 110.693 C 200.000 58.380,200.066 52.084,200.623 51.289 C 200.965 50.800,201.070 50.400,200.856 50.400 C 200.642 50.400,200.394 50.617,200.306 50.883 C 200.199 51.203,199.825 51.068,199.197 50.483 C 198.676 49.997,198.089 49.600,197.893 49.600 C 197.697 49.600,196.846 48.880,196.000 48.000 C 195.154 47.120,194.251 46.400,193.992 46.400 C 193.733 46.400,193.017 45.860,192.400 45.200 C 191.783 44.540,191.113 44.000,190.909 44.000 C 190.706 44.000,190.117 43.550,189.600 43.000 C 189.083 42.450,188.372 42.000,188.019 42.000 C 187.665 42.000,187.117 41.640,186.800 41.200 C 186.483 40.760,185.943 40.400,185.600 40.400 C 185.257 40.400,184.717 40.040,184.400 39.600 C 184.083 39.160,183.543 38.800,183.200 38.800 C 182.857 38.800,182.317 38.440,182.000 38.000 C 181.683 37.560,181.103 37.200,180.712 37.200 C 180.320 37.200,180.000 37.020,180.000 36.800 C 180.000 36.580,179.680 36.400,179.288 36.400 C 178.897 36.400,178.317 36.040,178.000 35.600 C 177.683 35.160,177.103 34.800,176.712 34.800 C 176.320 34.800,176.000 34.654,176.000 34.475 C 176.000 34.296,175.370 33.902,174.600 33.600 C 173.830 33.298,173.200 32.904,173.200 32.725 C 173.200 32.546,172.840 32.400,172.400 32.400 C 171.960 32.400,171.600 32.220,171.600 32.000 C 171.600 31.780,171.240 31.600,170.800 31.600 C 170.360 31.600,170.000 31.420,170.000 31.200 C 170.000 30.980,169.640 30.800,169.200 30.800 C 168.760 30.800,168.400 30.620,168.400 30.400 C 168.400 30.180,168.040 30.000,167.600 30.000 C 167.160 30.000,166.800 29.820,166.800 29.600 C 166.800 29.380,166.440 29.200,166.000 29.200 C 165.560 29.200,165.200 29.020,165.200 28.800 C 165.200 28.580,164.851 28.400,164.424 28.400 C 163.997 28.400,163.536 28.220,163.400 28.000 C 163.264 27.780,162.728 27.600,162.210 27.600 C 161.691 27.600,161.207 27.465,161.133 27.300 C 160.930 26.841,155.968 25.173,155.559 25.425 C 155.362 25.547,155.200 25.457,155.200 25.224 C 155.200 24.991,154.660 24.800,154.000 24.800 C 153.340 24.800,152.800 24.620,152.800 24.400 C 152.800 24.180,152.260 24.000,151.600 24.000 C 150.940 24.000,150.400 23.820,150.400 23.600 C 150.400 23.380,149.871 23.200,149.224 23.200 C 148.577 23.200,147.936 23.020,147.800 22.800 C 147.664 22.580,146.933 22.400,146.176 22.400 C 145.419 22.400,144.800 22.220,144.800 22.000 C 144.800 21.780,144.001 21.600,143.024 21.600 C 142.047 21.600,141.136 21.420,141.000 21.200 C 140.864 20.980,139.953 20.800,138.976 20.800 C 137.999 20.800,137.200 20.620,137.200 20.400 C 137.200 20.171,136.000 20.000,134.400 20.000 C 132.800 20.000,131.600 19.829,131.600 19.600 C 131.600 19.355,129.667 19.200,126.600 19.200 C 123.533 19.200,121.600 19.045,121.600 18.800 C 121.600 18.559,119.941 18.400,117.424 18.400 C 115.071 18.400,113.139 18.575,113.000 18.800 M278.600 18.800 C 278.464 19.020,278.734 19.200,279.200 19.200 C 279.666 19.200,279.936 19.020,279.800 18.800 C 279.664 18.580,279.394 18.400,279.200 18.400 C 279.006 18.400,278.736 18.580,278.600 18.800 M283.100 19.082 C 283.595 19.178,284.405 19.178,284.900 19.082 C 285.395 18.987,284.990 18.909,284.000 18.909 C 283.010 18.909,282.605 18.987,283.100 19.082 M268.400 19.616 C 268.400 20.067,270.267 20.140,270.537 19.700 C 270.639 19.535,270.200 19.362,269.561 19.316 C 268.922 19.270,268.400 19.405,268.400 19.616 M262.800 20.400 C 262.800 20.620,263.250 20.800,263.800 20.800 C 264.350 20.800,264.800 20.620,264.800 20.400 C 264.800 20.180,264.350 20.000,263.800 20.000 C 263.250 20.000,262.800 20.180,262.800 20.400 M259.200 21.200 C 258.734 21.501,258.851 21.589,259.724 21.594 C 260.372 21.597,260.743 21.431,260.600 21.200 C 260.293 20.703,259.969 20.703,259.200 21.200 M255.200 22.000 C 255.200 22.220,255.650 22.400,256.200 22.400 C 256.750 22.400,257.200 22.220,257.200 22.000 C 257.200 21.780,256.750 21.600,256.200 21.600 C 255.650 21.600,255.200 21.780,255.200 22.000 M252.200 22.800 C 252.059 23.028,252.404 23.200,253.000 23.200 C 253.596 23.200,253.941 23.028,253.800 22.800 C 253.664 22.580,253.304 22.400,253.000 22.400 C 252.696 22.400,252.336 22.580,252.200 22.800 M249.600 23.600 C 249.600 23.820,249.960 24.000,250.400 24.000 C 250.840 24.000,251.200 23.820,251.200 23.600 C 251.200 23.380,250.840 23.200,250.400 23.200 C 249.960 23.200,249.600 23.380,249.600 23.600 M243.700 25.299 C 242.157 25.794,241.992 26.400,243.400 26.400 C 243.950 26.400,244.400 26.220,244.400 26.000 C 244.400 25.780,244.850 25.600,245.400 25.600 C 245.950 25.600,246.400 25.420,246.400 25.200 C 246.400 24.710,245.424 24.746,243.700 25.299 M240.019 26.780 C 239.700 26.982,239.295 27.058,239.119 26.950 C 238.944 26.842,238.800 26.933,238.800 27.153 C 238.800 27.373,238.980 27.664,239.200 27.800 C 239.420 27.936,239.600 27.857,239.600 27.624 C 239.600 27.391,240.140 27.200,240.800 27.200 C 241.460 27.200,242.000 27.020,242.000 26.800 C 242.000 26.301,240.795 26.289,240.019 26.780 M236.600 28.000 C 236.464 28.220,236.734 28.400,237.200 28.400 C 237.666 28.400,237.936 28.220,237.800 28.000 C 237.664 27.780,237.394 27.600,237.200 27.600 C 237.006 27.600,236.736 27.780,236.600 28.000 M228.400 32.000 C 228.400 32.220,228.670 32.400,229.000 32.400 C 229.330 32.400,229.600 32.220,229.600 32.000 C 229.600 31.780,229.330 31.600,229.000 31.600 C 228.670 31.600,228.400 31.780,228.400 32.000 M225.100 33.720 C 224.495 33.959,224.000 34.300,224.000 34.477 C 224.000 34.996,224.528 34.838,225.600 34.000 C 226.718 33.125,226.671 33.099,225.100 33.720 M218.060 37.842 C 217.331 38.666,217.800 39.057,218.581 38.276 C 218.921 37.936,219.200 37.554,219.200 37.429 C 219.200 37.009,218.606 37.224,218.060 37.842 M210.768 42.700 C 210.329 43.280,210.329 43.320,210.768 42.931 C 211.059 42.673,211.546 42.558,211.849 42.674 C 212.152 42.790,212.400 42.686,212.400 42.443 C 212.400 41.756,211.358 41.921,210.768 42.700 M354.400 43.367 C 354.400 43.788,355.605 44.928,355.821 44.712 C 355.922 44.611,355.644 44.202,355.202 43.802 C 354.761 43.403,354.400 43.207,354.400 43.367 M357.600 46.190 C 358.548 47.439,360.839 49.695,360.997 49.536 C 361.178 49.355,358.870 46.803,357.800 46.000 C 357.039 45.429,357.029 45.439,357.600 46.190 M361.467 49.867 C 361.341 49.992,361.508 50.365,361.838 50.695 C 362.168 51.025,362.541 51.192,362.667 51.067 C 362.792 50.941,362.625 50.568,362.295 50.238 C 361.965 49.908,361.592 49.741,361.467 49.867 M368.400 57.025 C 368.400 57.491,369.555 58.397,369.749 58.083 C 369.858 57.905,369.600 57.543,369.174 57.277 C 368.748 57.011,368.400 56.898,368.400 57.025 M370.000 58.600 C 370.000 58.895,373.515 62.400,373.812 62.400 C 373.925 62.400,373.746 61.984,373.412 61.475 C 372.535 60.137,370.000 58.000,370.000 58.600 M374.684 63.850 C 374.554 63.979,374.898 64.535,375.448 65.085 C 376.746 66.382,377.043 66.086,375.843 64.690 C 375.335 64.098,374.813 63.720,374.684 63.850 M376.800 67.018 C 376.800 67.320,378.706 69.200,379.012 69.200 C 379.359 69.200,377.469 66.849,377.100 66.822 C 376.935 66.810,376.800 66.898,376.800 67.018 M379.200 70.225 C 379.200 70.525,380.273 71.600,380.571 71.600 C 381.080 71.600,380.751 70.962,380.000 70.493 C 379.560 70.218,379.200 70.098,379.200 70.225 M380.800 72.617 C 380.800 72.736,381.173 73.231,381.629 73.717 C 382.150 74.272,382.411 74.380,382.329 74.010 C 382.124 73.073,380.800 71.867,380.800 72.617 M399.693 148.800 C 399.693 149.570,399.775 149.885,399.876 149.500 C 399.976 149.115,399.976 148.485,399.876 148.100 C 399.775 147.715,399.693 148.030,399.693 148.800 M398.800 154.576 C 398.800 155.139,398.980 155.600,399.200 155.600 C 399.420 155.600,399.600 155.251,399.600 154.824 C 399.600 154.397,399.420 153.936,399.200 153.800 C 398.973 153.660,398.800 153.996,398.800 154.576 M398.000 158.800 C 398.000 159.240,398.180 159.600,398.400 159.600 C 398.620 159.600,398.800 159.240,398.800 158.800 C 398.800 158.360,398.620 158.000,398.400 158.000 C 398.180 158.000,398.000 158.360,398.000 158.800 M397.492 162.242 C 397.331 162.402,397.200 162.809,397.200 163.147 C 397.200 163.597,397.318 163.642,397.645 163.315 C 397.890 163.070,398.021 162.663,397.937 162.410 C 397.852 162.157,397.652 162.081,397.492 162.242 M396.400 165.576 C 396.400 166.029,396.580 166.400,396.800 166.400 C 397.020 166.400,397.200 166.141,397.200 165.824 C 397.200 165.507,397.020 165.136,396.800 165.000 C 396.580 164.864,396.400 165.123,396.400 165.576 M395.778 168.035 C 395.631 168.274,395.710 168.670,395.955 168.915 C 396.282 169.242,396.400 169.126,396.400 168.480 C 396.400 167.514,396.192 167.365,395.778 168.035 M130.451 206.126 C 129.763 207.126,129.200 208.137,129.200 208.372 C 129.200 208.607,129.020 208.800,128.800 208.800 C 128.580 208.800,128.400 208.997,128.400 209.238 C 128.400 209.479,128.061 210.154,127.647 210.738 C 127.233 211.322,126.530 212.450,126.084 213.245 C 124.381 216.287,124.194 216.606,123.999 216.800 C 123.889 216.910,123.529 217.525,123.199 218.166 C 122.405 219.711,119.624 222.463,118.166 223.147 C 117.525 223.447,116.687 223.852,116.305 224.047 C 115.918 224.244,98.566 224.400,77.038 224.400 C 55.823 224.400,38.172 224.512,37.814 224.650 C 37.193 224.888,51.190 238.998,79.901 267.077 C 88.684 275.667,89.037 276.017,98.200 285.200 C 101.602 288.610,105.292 292.300,106.399 293.400 C 107.507 294.500,111.376 298.370,114.997 302.000 C 118.618 305.630,122.657 309.635,123.972 310.900 C 125.287 312.165,126.277 313.200,126.172 313.200 C 126.002 313.200,133.543 320.686,140.881 327.800 C 142.356 329.230,143.486 330.400,143.392 330.400 C 143.214 330.400,151.256 338.392,156.776 343.700 C 158.550 345.405,159.905 346.800,159.789 346.800 C 159.595 346.800,165.774 352.974,172.859 359.857 C 174.477 361.429,177.793 364.759,180.230 367.257 C 186.631 373.821,192.338 379.105,193.656 379.689 C 194.285 379.967,194.800 380.331,194.800 380.498 C 194.800 380.664,195.700 380.800,196.800 380.800 C 197.900 380.800,198.800 380.980,198.800 381.200 C 198.800 381.420,199.179 381.600,199.643 381.600 C 200.247 381.600,200.417 381.421,200.243 380.967 C 200.109 380.619,199.989 345.564,199.975 303.067 L 199.949 225.800 198.118 229.600 C 194.140 237.853,190.166 246.206,186.984 253.000 C 184.620 258.049,182.588 260.157,178.800 261.494 C 177.179 262.066,172.314 262.165,171.295 261.647 C 170.913 261.452,170.110 261.064,169.511 260.785 C 167.353 259.778,161.600 252.820,161.600 251.218 C 161.600 250.988,161.420 250.800,161.200 250.800 C 160.980 250.800,160.800 250.619,160.800 250.397 C 160.800 250.175,159.654 248.240,158.254 246.097 C 155.596 242.028,153.841 239.287,149.615 232.600 C 148.224 230.400,146.122 227.117,144.943 225.304 C 143.765 223.491,142.800 221.826,142.800 221.604 C 142.800 221.382,142.642 221.200,142.449 221.200 C 142.255 221.200,141.873 220.660,141.600 220.000 C 141.327 219.340,140.945 218.800,140.751 218.800 C 140.558 218.800,140.400 218.619,140.400 218.397 C 140.400 218.175,139.198 216.150,137.728 213.897 C 135.048 209.788,134.016 208.157,132.511 205.654 L 131.701 204.309 130.451 206.126 M354.900 232.223 C 354.311 232.863,354.262 233.200,354.757 233.200 C 355.098 233.200,355.737 231.996,355.509 231.783 C 355.449 231.727,355.175 231.925,354.900 232.223 M335.809 251.599 L 331.819 255.800 335.992 251.715 C 338.287 249.469,340.082 247.578,339.982 247.514 C 339.882 247.450,338.004 249.288,335.809 251.599 M325.326 261.384 C 324.845 261.898,324.549 262.416,324.668 262.535 C 324.885 262.752,326.800 261.030,326.800 260.618 C 326.800 260.157,326.164 260.487,325.326 261.384  M -25 0 L -5 0 L -5 20 L -25 20 Z M 405 0 L 425 0 L 425 20 L 405 20 Z" stroke="none" fill="#fb445c" fill-rule="evenodd" transform="translate(30,0)"></path><path id="path1" d="M226.904 120.664 C 224.644 121.463,221.825 124.272,220.661 126.882 C 219.381 129.754,217.196 134.403,214.308 140.400 C 207.263 155.031,203.600 162.760,203.600 162.994 C 203.600 163.085,202.520 165.419,201.200 168.180 C 199.880 170.941,197.706 175.495,196.368 178.300 C 195.031 181.105,193.030 185.290,191.922 187.600 C 190.813 189.910,189.312 193.060,188.585 194.600 C 187.859 196.140,186.239 199.560,184.986 202.200 C 183.733 204.840,182.082 208.350,181.318 210.000 C 180.554 211.650,179.156 214.620,178.211 216.600 C 177.266 218.580,175.923 221.415,175.226 222.900 C 173.673 226.209,173.403 226.222,171.427 223.092 C 169.847 220.587,165.782 214.202,160.802 206.400 C 156.704 199.980,152.417 193.242,150.877 190.800 C 150.113 189.590,148.344 186.846,146.945 184.703 C 145.545 182.560,144.400 180.708,144.400 180.588 C 144.400 179.893,139.400 173.097,138.307 172.305 C 133.328 168.702,127.324 169.041,123.264 173.156 C 122.123 174.312,111.163 191.951,110.441 193.794 C 110.353 194.017,109.768 194.952,109.141 195.872 C 108.513 196.792,108.000 197.649,108.000 197.778 C 108.000 197.906,107.595 198.636,107.100 199.401 L 106.200 200.790 63.950 200.795 C 40.712 200.798,21.137 200.913,20.450 201.050 C 18.995 201.341,18.789 202.327,20.000 203.200 C 20.440 203.517,20.800 204.057,20.800 204.400 C 20.800 204.743,21.160 205.283,21.600 205.600 C 22.040 205.917,22.400 206.407,22.400 206.688 C 22.400 206.970,22.580 207.200,22.800 207.200 C 23.020 207.200,23.200 207.458,23.200 207.773 C 23.200 208.088,23.560 208.460,24.000 208.600 C 24.440 208.740,24.800 209.125,24.800 209.456 C 24.800 209.786,25.025 210.308,25.300 210.615 C 26.455 211.902,26.800 212.385,26.800 212.712 C 26.800 212.903,27.700 214.022,28.800 215.200 C 29.900 216.378,30.800 217.498,30.800 217.690 C 30.800 217.882,32.060 219.281,33.600 220.800 C 35.140 222.319,36.400 223.705,36.400 223.881 C 36.400 224.399,113.983 224.074,115.400 223.550 C 119.188 222.149,121.143 220.525,123.070 217.182 C 127.091 210.204,131.049 203.850,131.460 203.713 C 131.682 203.639,133.089 205.518,134.586 207.889 C 136.083 210.260,138.700 214.360,140.401 217.000 C 142.102 219.640,145.430 224.860,147.795 228.600 C 150.161 232.340,153.065 236.883,154.248 238.696 C 155.432 240.509,156.400 242.092,156.400 242.213 C 156.400 242.334,156.582 242.651,156.804 242.917 C 157.293 243.501,160.541 248.548,163.422 253.200 C 165.759 256.973,167.961 259.382,169.791 260.168 C 172.718 261.426,173.323 261.600,174.759 261.600 C 180.399 261.600,183.385 258.972,187.482 250.400 C 189.112 246.990,191.137 242.760,191.982 241.000 C 193.834 237.143,196.455 231.614,198.996 226.200 C 202.085 219.623,203.964 215.653,206.289 210.800 C 212.438 197.961,214.139 194.367,216.606 189.000 C 218.218 185.492,221.538 178.516,223.841 173.797 C 224.809 171.815,225.600 169.970,225.600 169.697 C 225.600 169.424,225.780 169.200,226.000 169.200 C 226.220 169.200,226.400 168.840,226.400 168.400 C 226.400 167.960,226.580 167.600,226.800 167.600 C 227.020 167.600,227.200 167.374,227.200 167.098 C 227.200 166.822,227.891 165.157,228.737 163.398 C 229.582 161.639,230.526 159.615,230.834 158.900 C 231.955 156.304,232.399 156.899,238.972 169.800 C 239.645 171.120,240.287 172.290,240.400 172.400 C 240.513 172.510,241.163 173.680,241.845 175.000 C 243.938 179.048,244.991 180.991,245.205 181.200 C 245.318 181.310,245.856 182.300,246.400 183.400 C 246.944 184.500,247.482 185.490,247.595 185.600 C 247.708 185.710,248.362 186.880,249.048 188.200 C 251.985 193.849,256.028 201.453,258.511 206.000 C 259.171 207.210,260.271 209.280,260.954 210.600 C 261.636 211.920,262.290 213.090,262.406 213.200 C 262.521 213.310,263.231 214.628,263.982 216.128 C 265.576 219.310,267.704 221.653,269.865 222.606 C 270.709 222.977,271.760 223.444,272.200 223.642 C 273.097 224.047,363.600 224.349,363.600 223.948 C 363.600 223.809,365.040 222.213,366.800 220.400 C 368.560 218.587,370.000 216.931,370.000 216.721 C 370.000 216.510,370.720 215.646,371.600 214.800 C 372.480 213.954,373.200 213.060,373.200 212.813 C 373.200 212.566,373.650 211.914,374.200 211.364 C 374.750 210.814,375.200 210.024,375.200 209.609 C 375.200 209.194,375.531 208.749,375.936 208.620 C 376.341 208.492,376.925 207.895,377.233 207.293 C 377.542 206.692,378.111 205.909,378.497 205.553 C 378.884 205.197,379.200 204.652,379.200 204.341 C 379.200 204.031,379.560 203.517,380.000 203.200 C 380.440 202.883,380.800 202.303,380.800 201.912 C 380.800 201.233,378.492 201.200,331.438 201.200 L 282.076 201.200 281.094 199.500 C 280.554 198.565,279.412 196.450,278.556 194.800 C 277.700 193.150,276.865 191.740,276.700 191.667 C 276.535 191.593,276.400 191.203,276.400 190.800 C 276.400 190.397,276.265 190.007,276.100 189.933 C 275.935 189.860,275.371 188.990,274.846 188.000 C 274.322 187.010,273.352 185.210,272.691 184.000 C 272.030 182.790,270.823 180.540,270.009 179.000 C 269.194 177.460,268.075 175.390,267.520 174.400 C 266.195 172.035,262.571 165.228,261.025 162.200 C 260.351 160.880,259.665 159.740,259.500 159.667 C 259.335 159.593,259.200 159.203,259.200 158.800 C 259.200 158.397,259.065 158.007,258.900 157.933 C 258.735 157.860,258.195 157.035,257.700 156.100 C 257.205 155.165,256.395 153.635,255.900 152.700 C 255.405 151.765,254.908 150.910,254.795 150.800 C 254.682 150.690,254.145 149.700,253.601 148.600 C 253.058 147.500,252.051 145.610,251.364 144.400 C 250.678 143.190,249.031 140.130,247.706 137.600 C 246.381 135.070,244.870 132.190,244.348 131.200 C 243.827 130.210,243.265 129.340,243.100 129.267 C 242.935 129.193,242.800 128.788,242.800 128.367 C 242.800 127.945,242.620 127.600,242.400 127.600 C 242.180 127.600,242.000 127.407,242.000 127.172 C 242.000 126.624,239.638 123.156,238.821 122.504 C 235.848 120.132,230.667 119.331,226.904 120.664  M -25 0 L -5 0 L -5 20 L -25 20 Z M 405 0 L 425 0 L 425 20 L 405 20 Z" stroke="none" fill="#cbe3f7" fill-rule="evenodd" transform="translate(490,0)"></path><path id="path2" d="M279.800 18.800 C 279.959 19.058,278.412 19.200,275.447 19.200 C 272.812 19.200,270.742 19.371,270.600 19.600 C 270.464 19.820,269.103 20.000,267.576 20.000 C 265.992 20.000,264.800 20.172,264.800 20.400 C 264.800 20.620,263.799 20.800,262.576 20.800 C 261.196 20.800,260.447 20.952,260.600 21.200 C 260.751 21.444,260.137 21.600,259.024 21.600 C 258.021 21.600,257.200 21.780,257.200 22.000 C 257.200 22.220,256.379 22.400,255.376 22.400 C 254.263 22.400,253.649 22.556,253.800 22.800 C 253.947 23.038,253.471 23.200,252.624 23.200 C 251.841 23.200,251.200 23.380,251.200 23.600 C 251.200 23.820,250.570 24.000,249.800 24.000 C 249.030 24.000,248.400 24.180,248.400 24.400 C 248.400 24.620,247.950 24.800,247.400 24.800 C 246.850 24.800,246.400 24.980,246.400 25.200 C 246.400 25.420,245.950 25.600,245.400 25.600 C 244.850 25.600,244.400 25.803,244.400 26.051 C 244.400 26.351,243.831 26.425,242.700 26.272 C 241.765 26.146,241.225 26.138,241.500 26.255 C 242.533 26.693,241.957 27.282,240.645 27.129 C 239.732 27.023,239.349 27.122,239.469 27.435 C 239.587 27.744,239.286 27.829,238.564 27.691 C 237.814 27.548,237.568 27.625,237.764 27.942 C 237.953 28.248,237.641 28.400,236.824 28.400 C 236.151 28.400,235.600 28.591,235.600 28.824 C 235.600 29.057,235.419 29.135,235.197 28.998 C 234.976 28.861,234.686 29.031,234.554 29.375 C 234.422 29.719,233.873 30.000,233.334 30.000 C 232.782 30.000,232.461 30.175,232.600 30.400 C 232.747 30.637,232.280 30.800,231.451 30.800 C 230.405 30.800,229.990 31.001,229.800 31.600 C 229.660 32.040,229.198 32.400,228.773 32.400 C 228.348 32.400,228.000 32.599,228.000 32.843 C 228.000 33.086,227.736 33.184,227.413 33.060 C 227.090 32.936,226.717 33.010,226.585 33.224 C 226.453 33.438,226.149 33.492,225.911 33.345 C 225.669 33.196,225.590 33.260,225.732 33.490 C 225.874 33.721,225.105 34.341,223.998 34.889 C 222.903 35.431,222.126 35.992,222.270 36.137 C 222.415 36.282,222.143 36.400,221.667 36.400 C 221.190 36.400,220.800 36.580,220.800 36.800 C 220.800 37.020,220.480 37.200,220.088 37.200 C 219.697 37.200,219.117 37.560,218.800 38.000 C 218.483 38.440,217.803 38.800,217.288 38.800 C 216.766 38.800,216.462 38.977,216.600 39.200 C 216.736 39.420,216.601 39.600,216.299 39.600 C 215.998 39.600,215.364 39.960,214.892 40.400 C 214.420 40.840,213.835 41.200,213.593 41.200 C 213.351 41.200,213.283 41.411,213.442 41.668 C 213.636 41.983,213.513 42.052,213.066 41.881 C 212.621 41.710,212.400 41.831,212.400 42.246 C 212.400 42.587,212.175 42.788,211.900 42.692 C 211.220 42.454,207.962 44.816,208.274 45.321 C 208.411 45.542,208.339 45.610,208.114 45.470 C 207.889 45.331,207.186 45.663,206.552 46.208 C 205.918 46.753,205.252 47.199,205.071 47.200 C 204.555 47.200,203.611 48.277,203.886 48.552 C 204.022 48.689,203.833 48.800,203.467 48.800 C 203.100 48.800,202.800 48.968,202.800 49.173 C 202.800 49.378,202.466 49.652,202.058 49.781 C 199.858 50.480,199.956 47.473,200.083 110.600 L 200.200 168.600 201.551 165.800 C 202.294 164.260,203.485 161.740,204.198 160.200 C 205.431 157.539,207.466 153.265,212.200 143.400 C 213.361 140.980,215.073 137.380,216.004 135.400 C 220.705 125.402,221.301 124.299,222.834 122.766 C 228.471 117.129,238.466 118.827,242.150 126.048 C 242.642 127.012,244.135 129.780,245.469 132.200 C 246.802 134.620,248.700 138.130,249.685 140.000 C 250.671 141.870,251.835 144.030,252.271 144.800 C 252.708 145.570,253.860 147.730,254.832 149.600 C 255.803 151.470,256.690 153.090,256.802 153.200 C 256.913 153.310,257.560 154.480,258.238 155.800 C 258.916 157.120,259.923 159.010,260.476 160.000 C 261.941 162.623,265.564 169.423,266.975 172.200 C 267.646 173.520,268.286 174.690,268.398 174.800 C 268.509 174.910,269.120 175.990,269.756 177.200 C 270.392 178.410,271.517 180.525,272.256 181.900 C 272.995 183.275,274.249 185.615,275.042 187.100 C 275.835 188.585,277.831 192.275,279.477 195.300 L 282.470 200.800 331.402 200.800 C 358.315 200.800,380.585 200.896,380.890 201.013 C 381.262 201.156,381.746 200.561,382.355 199.213 C 382.856 198.106,383.431 197.200,383.633 197.200 C 383.835 197.200,384.003 196.795,384.006 196.300 C 384.011 195.572,384.086 195.515,384.400 196.000 C 384.714 196.485,384.789 196.428,384.794 195.700 C 384.797 195.205,385.010 194.800,385.267 194.800 C 385.523 194.800,385.621 194.687,385.483 194.549 C 385.246 194.312,386.231 192.030,386.756 191.600 C 387.208 191.229,388.800 187.930,388.800 187.362 C 388.800 187.053,388.980 186.800,389.200 186.800 C 389.420 186.800,389.600 186.339,389.600 185.776 C 389.600 185.213,389.743 184.841,389.917 184.949 C 390.091 185.056,390.262 184.777,390.295 184.328 C 390.329 183.878,390.601 183.216,390.900 182.855 C 391.199 182.495,391.495 181.570,391.558 180.800 C 391.622 180.030,391.837 179.340,392.037 179.267 C 392.237 179.193,392.400 178.788,392.400 178.367 C 392.400 177.945,392.580 177.600,392.800 177.600 C 393.020 177.600,393.200 177.060,393.200 176.400 C 393.200 175.740,393.380 175.200,393.600 175.200 C 393.820 175.200,394.000 174.930,394.000 174.600 C 394.000 174.270,394.180 174.000,394.400 174.000 C 394.620 174.000,394.800 173.809,394.800 173.576 C 394.800 173.343,394.620 173.264,394.400 173.400 C 394.180 173.536,394.000 173.457,394.000 173.224 C 394.000 172.991,394.180 172.800,394.400 172.800 C 394.620 172.800,394.800 172.530,394.800 172.200 C 394.800 171.870,394.980 171.600,395.200 171.600 C 395.420 171.600,395.600 171.409,395.600 171.176 C 395.600 170.943,395.420 170.864,395.200 171.000 C 394.980 171.136,394.800 171.072,394.800 170.857 C 394.800 170.642,395.003 170.399,395.250 170.317 C 395.498 170.234,395.700 169.676,395.700 169.076 C 395.700 168.476,395.858 167.888,396.050 167.769 C 396.243 167.650,396.400 166.923,396.400 166.153 C 396.400 165.321,396.562 164.853,396.800 165.000 C 397.038 165.147,397.200 164.679,397.200 163.847 C 397.200 163.077,397.380 162.336,397.600 162.200 C 397.820 162.064,398.000 161.063,398.000 159.976 C 398.000 158.889,398.180 158.000,398.400 158.000 C 398.620 158.000,398.800 156.999,398.800 155.776 C 398.800 154.553,398.953 153.647,399.139 153.762 C 399.616 154.057,400.000 145.854,399.998 135.437 C 399.996 125.157,399.624 117.538,399.140 117.837 C 398.861 118.010,398.561 114.228,398.763 113.070 C 398.794 112.889,398.635 112.855,398.410 112.994 C 398.159 113.149,398.000 112.694,398.000 111.824 C 398.000 111.041,397.820 110.400,397.600 110.400 C 397.380 110.400,397.200 109.590,397.200 108.600 C 397.200 107.610,397.020 106.800,396.800 106.800 C 396.580 106.800,396.400 106.206,396.400 105.480 C 396.400 104.754,396.221 103.981,396.002 103.762 C 395.784 103.544,395.564 102.878,395.515 102.282 C 395.466 101.687,395.285 101.200,395.113 101.200 C 394.941 101.200,394.800 100.660,394.800 100.000 C 394.800 99.340,394.620 98.800,394.400 98.800 C 394.180 98.800,394.000 98.429,394.000 97.976 C 394.000 97.523,393.865 97.236,393.700 97.337 C 393.535 97.439,393.359 96.956,393.308 96.264 C 393.258 95.572,393.033 94.944,392.808 94.869 C 392.584 94.795,392.400 94.478,392.400 94.167 C 392.400 93.855,392.220 93.600,392.000 93.600 C 391.780 93.600,391.599 93.105,391.598 92.500 C 391.596 91.895,391.326 90.884,390.998 90.254 C 390.669 89.624,390.400 88.859,390.400 88.554 C 390.400 88.249,390.265 87.999,390.100 87.997 C 389.935 87.995,389.592 87.545,389.338 86.997 C 389.041 86.358,389.021 86.000,389.282 86.000 C 389.506 86.000,389.264 85.626,388.744 85.170 C 388.225 84.713,388.070 84.472,388.400 84.634 C 388.730 84.796,388.606 84.495,388.124 83.965 C 387.643 83.434,387.251 82.857,387.254 82.683 C 387.256 82.508,386.890 81.788,386.439 81.083 C 385.987 80.377,385.389 79.440,385.109 79.000 C 384.829 78.560,384.420 78.068,384.200 77.906 C 383.954 77.726,383.998 77.610,384.314 77.606 C 384.596 77.603,384.270 77.055,383.588 76.388 C 382.906 75.722,382.322 74.830,382.290 74.405 C 382.258 73.981,382.159 73.708,382.069 73.798 C 381.799 74.067,380.800 72.900,380.800 72.317 C 380.800 72.020,380.440 71.517,380.000 71.200 C 379.560 70.883,379.200 70.375,379.200 70.072 C 379.200 69.769,378.660 69.017,378.000 68.400 C 377.340 67.783,376.800 67.063,376.800 66.800 C 376.800 66.537,376.298 65.844,375.685 65.260 C 375.045 64.652,374.616 63.859,374.678 63.400 C 374.737 62.960,374.684 62.825,374.560 63.100 C 374.435 63.375,374.158 63.600,373.943 63.600 C 373.728 63.600,373.666 63.416,373.805 63.192 C 373.944 62.967,373.145 61.903,372.029 60.828 C 370.913 59.752,370.000 58.646,370.000 58.369 C 370.000 58.093,369.889 57.978,369.752 58.114 C 369.376 58.491,368.401 57.353,368.394 56.529 C 368.389 55.912,368.328 55.892,368.000 56.400 C 367.670 56.910,367.611 56.894,367.606 56.287 C 367.599 55.411,365.058 52.800,364.213 52.800 C 363.876 52.800,363.645 52.603,363.700 52.363 C 363.755 52.122,363.448 51.717,363.017 51.463 C 361.809 50.749,361.213 50.120,361.486 49.848 C 361.622 49.711,361.512 49.600,361.242 49.600 C 360.972 49.600,359.707 48.520,358.431 47.200 C 357.156 45.880,355.973 44.800,355.803 44.800 C 355.633 44.800,355.203 44.472,354.847 44.072 C 354.491 43.671,353.571 42.996,352.803 42.572 C 352.034 42.147,350.954 41.339,350.403 40.775 C 349.851 40.212,348.590 39.312,347.600 38.775 C 346.610 38.239,345.509 37.485,345.153 37.100 C 344.797 36.715,344.304 36.400,344.058 36.400 C 343.640 36.400,342.629 35.682,341.384 34.500 C 341.094 34.225,340.608 34.000,340.304 34.000 C 340.000 34.000,339.364 33.640,338.892 33.200 C 338.420 32.760,337.866 32.400,337.662 32.400 C 337.161 32.400,335.188 31.362,335.306 31.161 C 335.358 31.072,335.334 31.036,335.252 31.081 C 335.171 31.126,333.871 30.541,332.362 29.781 C 330.854 29.021,329.345 28.400,329.010 28.400 C 328.674 28.400,328.400 28.220,328.400 28.000 C 328.400 27.780,328.070 27.600,327.667 27.600 C 327.263 27.600,326.814 27.481,326.668 27.335 C 326.259 26.926,322.321 25.600,321.515 25.600 C 321.122 25.600,320.800 25.420,320.800 25.200 C 320.800 24.980,320.260 24.800,319.600 24.800 C 318.940 24.800,318.400 24.620,318.400 24.400 C 318.400 24.180,317.871 24.000,317.224 24.000 C 316.577 24.000,315.936 23.820,315.800 23.600 C 315.664 23.380,314.933 23.200,314.176 23.200 C 313.419 23.200,312.800 23.020,312.800 22.800 C 312.800 22.580,312.260 22.400,311.600 22.400 C 310.940 22.400,310.400 22.220,310.400 22.000 C 310.400 21.780,309.489 21.600,308.376 21.600 C 307.129 21.600,306.448 21.447,306.600 21.200 C 306.752 20.954,306.079 20.800,304.847 20.800 C 303.747 20.800,302.736 20.620,302.600 20.400 C 302.464 20.180,301.193 20.000,299.776 20.000 C 298.325 20.000,297.200 19.825,297.200 19.600 C 297.200 19.356,295.333 19.200,292.400 19.200 C 289.467 19.200,287.600 19.044,287.600 18.800 C 287.600 18.185,280.915 18.281,280.665 18.900 C 280.504 19.300,280.457 19.300,280.432 18.900 C 280.414 18.625,280.209 18.400,279.976 18.400 C 279.743 18.400,279.664 18.580,279.800 18.800 M284.900 19.082 C 284.405 19.178,283.595 19.178,283.100 19.082 C 282.605 18.987,283.010 18.909,284.000 18.909 C 284.990 18.909,285.395 18.987,284.900 19.082 M231.226 159.308 C 230.695 160.669,226.735 169.126,222.192 178.600 C 219.407 184.408,216.802 189.907,215.088 193.600 C 212.748 198.642,209.651 205.193,207.618 209.400 C 206.556 211.600,204.754 215.380,203.616 217.800 C 202.478 220.220,201.198 222.892,200.773 223.738 C 200.017 225.242,200.000 226.969,200.006 302.938 C 200.012 376.936,200.103 383.668,201.064 381.300 C 201.182 381.008,201.990 380.800,203.010 380.800 C 203.968 380.800,204.864 380.620,205.000 380.400 C 205.136 380.180,205.607 380.000,206.047 380.000 C 206.487 380.000,206.736 379.820,206.600 379.600 C 206.464 379.380,206.644 379.200,207.000 379.200 C 207.356 379.200,207.536 379.020,207.400 378.800 C 207.264 378.580,207.413 378.400,207.732 378.400 C 208.050 378.400,209.333 377.410,210.582 376.200 C 211.832 374.990,213.022 374.000,213.227 374.000 C 213.572 374.000,213.761 373.417,213.647 372.700 C 213.621 372.535,213.762 372.445,213.960 372.500 C 214.158 372.555,214.653 372.278,215.060 371.885 C 215.467 371.493,216.565 370.465,217.500 369.602 C 218.435 368.738,219.200 367.834,219.200 367.592 C 219.200 367.351,219.347 367.244,219.527 367.355 C 219.707 367.466,220.112 367.177,220.427 366.713 C 220.742 366.249,221.942 364.936,223.092 363.794 C 224.243 362.652,225.068 361.602,224.926 361.459 C 224.783 361.317,225.012 361.197,225.433 361.194 C 226.075 361.189,226.102 361.124,225.600 360.800 C 225.091 360.471,225.110 360.411,225.724 360.406 C 226.122 360.403,226.336 360.220,226.200 360.000 C 226.064 359.780,226.259 359.600,226.633 359.600 C 227.006 359.600,228.641 358.250,230.264 356.600 C 231.887 354.950,233.310 353.600,233.426 353.600 C 233.846 353.600,235.600 351.624,235.600 351.152 C 235.600 350.885,235.715 350.782,235.855 350.922 C 235.996 351.063,236.761 350.428,237.555 349.512 C 238.350 348.597,239.399 347.494,239.886 347.063 C 240.374 346.632,240.675 346.122,240.557 345.930 C 240.438 345.738,240.492 345.630,240.678 345.690 C 240.863 345.751,242.012 344.810,243.231 343.600 C 244.450 342.390,246.172 340.770,247.058 340.000 C 247.944 339.230,248.887 338.190,249.154 337.689 C 249.422 337.188,249.766 336.854,249.920 336.947 C 250.297 337.175,251.216 336.149,250.909 335.843 C 250.776 335.709,250.977 335.600,251.357 335.600 C 251.737 335.600,251.936 335.420,251.800 335.200 C 251.664 334.980,251.767 334.800,252.029 334.800 C 252.550 334.800,254.000 333.283,254.000 332.739 C 254.000 332.552,254.300 332.400,254.667 332.400 C 255.033 332.400,255.216 332.283,255.073 332.140 C 254.930 331.996,255.471 331.321,256.275 330.640 C 257.079 329.958,257.932 329.160,258.169 328.867 C 259.095 327.723,262.939 324.000,263.195 324.000 C 263.343 324.000,263.702 323.556,263.993 323.014 C 264.283 322.471,264.673 322.122,264.860 322.237 C 265.047 322.353,265.200 322.137,265.200 321.757 C 265.200 321.377,265.308 321.174,265.439 321.306 C 265.571 321.437,267.821 319.352,270.439 316.672 C 275.753 311.234,275.757 311.230,284.400 302.588 C 293.925 293.063,295.169 291.827,301.564 285.529 C 304.843 282.301,307.422 279.556,307.296 279.429 C 307.170 279.303,307.355 279.200,307.706 279.200 C 308.058 279.200,308.456 278.885,308.590 278.500 C 308.723 278.115,309.556 277.170,310.440 276.400 C 312.597 274.521,324.830 262.400,324.570 262.400 C 324.456 262.400,324.814 261.950,325.364 261.400 C 325.914 260.850,326.562 260.400,326.805 260.400 C 327.048 260.400,327.153 260.247,327.037 260.060 C 326.922 259.873,327.316 259.469,327.914 259.161 C 328.511 258.853,329.124 258.428,329.276 258.216 C 329.814 257.464,340.000 247.362,340.000 247.579 C 340.001 247.701,340.447 247.282,340.992 246.648 C 341.537 246.014,341.869 245.311,341.730 245.086 C 341.584 244.851,341.673 244.798,341.938 244.962 C 342.215 245.133,342.400 244.987,342.400 244.600 C 342.400 244.244,342.565 244.055,342.768 244.180 C 343.247 244.476,344.476 243.247,344.180 242.768 C 344.055 242.565,344.244 242.400,344.600 242.400 C 344.956 242.400,345.136 242.220,345.000 242.000 C 344.864 241.780,344.920 241.600,345.124 241.600 C 345.798 241.600,349.600 238.344,349.600 237.766 C 349.600 237.455,349.735 237.221,349.900 237.247 C 350.935 237.411,351.393 237.183,350.800 236.800 C 350.322 236.491,350.403 236.405,351.200 236.375 C 351.750 236.354,351.980 236.248,351.712 236.139 C 351.327 235.983,351.327 235.829,351.712 235.415 C 352.068 235.030,352.279 235.011,352.494 235.344 C 352.663 235.607,352.793 235.376,352.800 234.800 C 352.810 234.007,352.892 233.924,353.200 234.400 C 353.512 234.883,353.589 234.819,353.594 234.076 C 353.597 233.564,353.778 233.263,354.000 233.400 C 354.220 233.536,354.400 233.444,354.400 233.195 C 354.400 232.423,355.502 231.523,355.736 232.104 C 355.863 232.418,355.948 232.364,355.968 231.956 C 355.986 231.602,356.439 230.982,356.976 230.579 C 357.513 230.176,357.862 229.701,357.752 229.523 C 357.643 229.345,357.833 229.200,358.176 229.200 C 358.519 229.200,358.755 229.065,358.700 228.900 C 358.645 228.735,358.771 228.568,358.980 228.530 C 359.189 228.491,359.499 228.086,359.667 227.630 C 359.836 227.173,360.250 226.800,360.587 226.800 C 360.924 226.800,361.155 226.575,361.100 226.300 C 361.045 226.025,361.225 225.845,361.500 225.900 C 361.775 225.955,362.000 225.640,362.000 225.200 C 362.000 224.405,361.733 224.400,316.995 224.400 C 291.745 224.400,271.684 224.245,271.295 224.047 C 270.913 223.852,270.075 223.447,269.434 223.147 C 267.630 222.301,265.128 219.577,263.756 216.967 C 263.072 215.665,261.923 213.520,261.203 212.200 C 260.482 210.880,259.091 208.274,258.111 206.408 C 257.131 204.543,255.288 201.123,254.015 198.808 C 251.707 194.613,249.609 190.709,246.807 185.400 C 245.995 183.860,244.913 181.880,244.403 181.000 C 243.893 180.120,242.627 177.780,241.590 175.800 C 240.552 173.820,238.330 169.691,236.651 166.624 C 234.973 163.557,233.377 160.545,233.105 159.930 C 232.455 158.461,231.659 158.198,231.226 159.308  M -25 0 L -5 0 L -5 20 L -25 20 Z M 405 0 L 425 0 L 425 20 L 405 20 Z" stroke="none" fill="#c40444" fill-rule="evenodd" transform="translate(950,0)"></path><path id="path3" d="M127.000 170.012 C 124.333 171.040,122.209 172.855,120.756 175.349 C 120.099 176.477,118.310 179.449,116.781 181.953 C 115.251 184.457,114.000 186.584,114.000 186.681 C 114.000 186.777,113.460 187.641,112.800 188.600 C 112.140 189.559,111.600 190.459,111.600 190.600 C 111.600 190.741,111.060 191.641,110.400 192.600 C 109.740 193.559,109.200 194.459,109.200 194.600 C 109.200 194.741,108.699 195.608,108.088 196.528 C 107.476 197.448,106.726 198.694,106.421 199.298 L 105.867 200.396 63.133 200.501 L 20.400 200.605 63.243 200.603 L 106.086 200.600 112.443 190.016 C 115.939 184.195,118.800 179.401,118.800 179.364 C 118.800 177.954,123.890 171.860,125.762 171.029 C 133.014 167.808,137.745 169.727,142.947 178.000 C 146.774 184.087,149.646 188.400,149.871 188.400 C 149.993 188.400,149.766 187.905,149.368 187.300 C 148.969 186.695,147.751 184.760,146.660 183.000 C 142.776 176.735,139.995 172.837,138.706 171.854 C 135.241 169.211,130.866 168.523,127.000 170.012 M199.055 171.055 C 198.676 171.849,198.453 172.586,198.559 172.693 C 198.666 172.799,199.036 172.209,199.382 171.382 C 200.198 169.429,199.949 169.180,199.055 171.055 M197.046 175.258 C 196.471 176.412,196.009 177.547,196.019 177.779 C 196.030 178.010,196.582 177.147,197.246 175.860 C 197.910 174.573,198.372 173.439,198.273 173.339 C 198.173 173.240,197.621 174.103,197.046 175.258 M194.245 181.282 C 193.450 182.891,192.809 184.385,192.820 184.604 C 192.831 184.822,193.562 183.586,194.446 181.859 C 195.329 180.131,195.970 178.637,195.871 178.537 C 195.772 178.438,195.040 179.673,194.245 181.282 M192.000 185.687 C 192.000 185.954,191.117 187.979,190.039 190.187 C 185.350 199.781,181.145 208.878,181.317 209.051 C 181.391 209.125,182.329 207.343,183.401 205.093 C 184.474 202.842,186.639 198.300,188.213 195.000 C 189.787 191.700,191.404 188.280,191.805 187.400 C 192.206 186.520,192.605 185.665,192.691 185.500 C 192.777 185.335,192.657 185.200,192.424 185.200 C 192.191 185.200,192.000 185.419,192.000 185.687 M150.000 189.005 C 150.000 189.406,153.727 194.807,153.890 194.643 C 154.056 194.478,150.413 188.800,150.141 188.800 C 150.064 188.800,150.000 188.892,150.000 189.005 M154.254 195.700 C 154.419 195.975,155.989 198.450,157.742 201.200 C 159.495 203.950,161.647 207.370,162.525 208.800 C 164.636 212.240,168.005 217.299,168.519 217.800 C 169.143 218.410,167.409 215.544,163.728 209.879 C 161.898 207.063,160.400 204.588,160.400 204.379 C 160.400 204.171,160.220 204.000,160.000 204.000 C 159.780 204.000,159.600 203.826,159.600 203.614 C 159.600 203.166,154.436 195.200,154.147 195.200 C 154.040 195.200,154.088 195.425,154.254 195.700 M130.659 204.900 C 130.351 205.395,128.259 208.860,126.010 212.600 C 121.491 220.116,120.294 221.585,117.617 222.904 L 115.800 223.800 77.400 224.005 L 39.000 224.210 77.305 224.305 C 98.894 224.359,115.914 224.246,116.305 224.047 C 116.687 223.852,117.525 223.447,118.166 223.147 C 119.624 222.463,122.405 219.711,123.199 218.166 C 123.529 217.525,123.889 216.910,123.999 216.800 C 124.194 216.606,124.381 216.287,126.084 213.245 C 126.530 212.450,127.233 211.322,127.647 210.738 C 128.061 210.154,128.400 209.479,128.400 209.238 C 128.400 208.997,128.580 208.800,128.800 208.800 C 129.020 208.800,129.200 208.607,129.200 208.372 C 129.200 208.137,129.763 207.126,130.451 206.126 L 131.701 204.309 132.511 205.654 C 134.016 208.157,135.048 209.788,137.728 213.897 C 139.198 216.150,140.400 218.175,140.400 218.397 C 140.400 218.619,140.558 218.800,140.751 218.800 C 140.945 218.800,141.327 219.340,141.600 220.000 C 141.873 220.660,142.255 221.200,142.449 221.200 C 142.642 221.200,142.800 221.382,142.800 221.604 C 142.800 221.826,143.765 223.491,144.943 225.304 C 146.122 227.117,148.224 230.400,149.615 232.600 C 153.841 239.287,155.596 242.028,158.254 246.097 C 159.654 248.240,160.800 250.175,160.800 250.397 C 160.800 250.619,160.980 250.800,161.200 250.800 C 161.420 250.800,161.600 250.988,161.600 251.218 C 161.600 252.820,167.353 259.778,169.511 260.785 C 170.110 261.064,170.913 261.452,171.295 261.647 C 174.521 263.288,181.627 261.123,184.326 257.677 C 185.505 256.171,189.359 248.426,189.072 248.139 C 188.986 248.052,187.904 250.035,186.669 252.546 C 183.408 259.176,180.284 261.600,175.000 261.600 C 169.823 261.600,167.452 259.734,162.176 251.509 C 153.910 238.620,151.946 235.546,146.783 227.400 C 143.855 222.780,140.023 216.750,138.269 214.000 C 136.515 211.250,134.367 207.875,133.495 206.500 C 131.745 203.739,131.475 203.587,130.659 204.900 M179.445 212.482 C 178.650 214.091,178.009 215.585,178.020 215.804 C 178.031 216.022,178.762 214.786,179.646 213.059 C 180.529 211.331,181.170 209.837,181.071 209.737 C 180.972 209.638,180.240 210.873,179.445 212.482 M175.445 220.882 C 174.650 222.491,174.000 224.017,174.000 224.274 C 174.000 224.531,173.685 224.824,173.300 224.924 C 172.711 225.078,172.703 225.115,173.250 225.154 C 173.864 225.197,177.468 218.535,177.054 218.121 C 176.964 218.031,176.240 219.273,175.445 220.882 M169.251 219.300 C 170.154 220.996,172.521 224.412,172.682 224.251 C 172.865 224.069,169.265 218.400,168.967 218.400 C 168.859 218.400,168.987 218.805,169.251 219.300 M198.863 226.861 C 198.427 227.817,196.776 231.300,195.194 234.600 C 192.195 240.854,191.517 242.400,191.772 242.400 C 192.138 242.400,200.088 225.554,199.839 225.306 C 199.738 225.205,199.299 225.905,198.863 226.861 M190.259 245.059 C 189.656 246.289,189.242 247.375,189.339 247.473 C 189.437 247.570,190.009 246.643,190.612 245.412 C 191.214 244.181,191.628 243.094,191.531 242.998 C 191.435 242.901,190.862 243.829,190.259 245.059  M -25 0 L -5 0 L -5 20 L -25 20 Z M 405 0 L 425 0 L 425 20 L 405 20 Z" stroke="none" fill="#e97c97" fill-rule="evenodd" transform="translate(30,460)"></path><path id="path4" d="M226.200 120.481 C 223.282 121.928,221.681 123.900,219.123 129.200 C 217.796 131.950,215.668 136.360,214.395 139.000 C 213.121 141.640,211.540 144.970,210.882 146.400 C 208.009 152.640,205.553 157.855,205.165 158.539 C 204.934 158.945,204.842 159.375,204.960 159.493 C 205.079 159.612,205.737 158.469,206.424 156.954 C 207.604 154.352,208.940 151.547,214.404 140.200 C 217.201 134.392,219.393 129.727,220.661 126.882 C 224.365 118.577,235.649 117.446,240.721 124.872 C 241.425 125.902,242.000 126.937,242.000 127.172 C 242.000 127.407,242.180 127.600,242.400 127.600 C 242.620 127.600,242.800 127.960,242.800 128.400 C 242.800 128.840,242.936 129.200,243.102 129.200 C 243.269 129.200,243.659 129.785,243.970 130.500 C 244.686 132.144,245.661 133.673,245.864 133.469 C 245.950 133.383,245.428 132.253,244.704 130.956 C 243.980 129.660,242.940 127.710,242.394 126.623 C 239.345 120.557,231.809 117.699,226.200 120.481 M246.000 134.196 C 246.000 134.305,247.380 136.960,249.066 140.096 C 250.753 143.233,252.687 146.880,253.364 148.200 C 254.041 149.520,254.686 150.690,254.798 150.800 C 254.909 150.910,255.405 151.765,255.900 152.700 C 256.395 153.635,257.205 155.165,257.700 156.100 C 258.195 157.035,258.735 157.860,258.900 157.933 C 259.065 158.007,259.200 158.397,259.200 158.800 C 259.200 159.203,259.335 159.593,259.500 159.667 C 259.665 159.740,260.351 160.880,261.025 162.200 C 262.571 165.228,266.195 172.035,267.520 174.400 C 268.075 175.390,269.194 177.460,270.009 179.000 C 270.823 180.540,272.030 182.790,272.691 184.000 C 273.352 185.210,274.322 187.010,274.846 188.000 C 275.371 188.990,275.935 189.860,276.100 189.933 C 276.265 190.007,276.400 190.397,276.400 190.800 C 276.400 191.203,276.535 191.593,276.700 191.667 C 276.865 191.740,277.700 193.150,278.556 194.800 C 279.412 196.450,280.554 198.565,281.094 199.500 L 282.076 201.200 331.538 201.102 L 381.000 201.005 331.600 200.802 L 282.200 200.600 279.078 194.800 C 275.861 188.822,272.673 182.900,270.787 179.400 C 270.194 178.300,269.034 176.140,268.208 174.600 C 267.382 173.060,266.216 170.900,265.617 169.800 C 265.017 168.700,263.802 166.450,262.915 164.800 C 262.029 163.150,260.673 160.630,259.902 159.200 C 259.131 157.770,257.640 154.982,256.589 153.003 C 255.538 151.025,254.316 148.775,253.874 148.003 C 253.432 147.232,252.410 145.340,251.603 143.800 C 247.536 136.037,246.000 133.404,246.000 134.196 M230.833 158.900 C 230.523 159.615,229.557 161.692,228.685 163.517 C 227.813 165.341,227.181 166.914,227.279 167.012 C 227.378 167.111,228.399 165.213,229.548 162.796 C 230.698 160.378,231.794 158.400,231.985 158.400 C 232.357 158.400,233.765 160.841,237.406 167.800 C 238.672 170.220,239.838 172.380,239.997 172.600 C 240.157 172.820,241.372 175.073,242.698 177.606 C 244.024 180.140,245.517 182.930,246.016 183.806 C 246.514 184.683,247.727 186.930,248.710 188.800 C 249.693 190.670,250.817 192.740,251.207 193.400 C 251.804 194.409,252.829 196.319,255.678 201.734 C 255.891 202.138,256.149 202.384,256.252 202.281 C 256.355 202.178,256.100 201.488,255.685 200.747 C 254.984 199.497,251.254 192.440,248.840 187.800 C 248.268 186.700,247.708 185.710,247.595 185.600 C 247.482 185.490,246.944 184.500,246.400 183.400 C 245.856 182.300,245.318 181.310,245.205 181.200 C 244.991 180.991,243.938 179.048,241.845 175.000 C 241.163 173.680,240.513 172.510,240.400 172.400 C 240.287 172.290,239.645 171.120,238.972 169.800 C 232.398 156.898,231.956 156.305,230.833 158.900 M203.391 162.262 C 202.804 163.548,201.827 165.680,201.220 167.000 C 199.662 170.391,199.150 171.683,199.304 171.837 C 199.377 171.910,200.005 170.762,200.700 169.285 C 203.599 163.119,204.817 160.284,204.643 160.110 C 204.541 160.008,203.978 160.977,203.391 162.262 M226.400 168.400 C 226.400 168.840,226.220 169.200,226.000 169.200 C 225.780 169.200,225.600 169.424,225.600 169.697 C 225.600 169.970,224.809 171.815,223.841 173.797 C 221.538 178.516,218.218 185.492,216.606 189.000 C 215.898 190.540,214.640 193.203,213.810 194.917 C 212.980 196.632,212.378 198.112,212.472 198.206 C 212.566 198.300,213.656 196.267,214.893 193.688 C 220.038 182.968,224.937 172.625,226.303 169.600 C 226.650 168.830,227.005 168.065,227.091 167.900 C 227.177 167.735,227.057 167.600,226.824 167.600 C 226.591 167.600,226.400 167.960,226.400 168.400 M210.198 202.681 C 202.480 218.626,199.941 224.074,200.136 224.269 C 200.238 224.371,201.080 222.867,202.007 220.927 C 202.935 218.987,204.558 215.600,205.614 213.400 C 210.635 202.939,212.409 199.075,212.258 198.925 C 212.168 198.835,211.241 200.525,210.198 202.681 M256.400 202.916 C 256.400 203.067,257.368 204.948,258.550 207.096 C 260.496 210.628,263.277 215.792,264.638 218.400 C 265.472 219.997,268.030 222.261,270.258 223.373 L 272.316 224.400 317.258 224.302 L 362.200 224.204 317.600 224.107 C 291.856 224.051,272.662 223.856,272.200 223.646 C 271.760 223.446,270.709 222.977,269.865 222.606 C 267.704 221.653,265.576 219.310,263.982 216.128 C 263.231 214.628,262.521 213.310,262.406 213.200 C 262.290 213.090,261.636 211.920,260.954 210.600 C 257.600 204.118,256.400 202.092,256.400 202.916  M -25 0 L -5 0 L -5 20 L -25 20 Z M 405 0 L 425 0 L 425 20 L 405 20 Z" stroke="none" fill="#ce98ba" fill-rule="evenodd" transform="translate(490,460)"></path></g></svg>