<?xml version="1.0" standalone="no"?>
<!DOCTYPE svg PUBLIC "-//W3C//DTD SVG 20010904//EN"
 "http://www.w3.org/TR/2001/REC-SVG-20010904/DTD/svg10.dtd">
<svg version="1.0" xmlns="http://www.w3.org/2000/svg"
 width="512.000000pt" height="512.000000pt" viewBox="0 0 512.000000 512.000000"
 preserveAspectRatio="xMidYMid meet">

<g transform="translate(0.000000,512.000000) scale(0.100000,-0.100000)"
fill="#000000" stroke="none">
<path d="M1565 4406 c-187 -31 -363 -100 -521 -206 -101 -68 -256 -223 -324
-324 -220 -329 -278 -734 -156 -1095 l23 -68 -75 -44 c-245 -144 -421 -388
-488 -674 -27 -115 -25 -360 4 -465 55 -203 146 -365 281 -501 136 -135 298
-226 501 -281 105 -29 350 -31 465 -4 135 31 243 79 372 163 l53 35 82 -53
c100 -64 214 -113 328 -142 120 -30 370 -30 480 1 162 44 285 105 436 217 21
15 26 13 104 -40 434 -296 991 -298 1430 -6 401 266 616 756 544 1238 -17 118
-66 278 -114 374 -120 239 -340 459 -579 579 -83 41 -247 94 -338 110 l-72 12
-6 36 c-12 79 -47 200 -74 259 -195 418 -690 605 -1112 420 l-53 -23 -111 111
c-191 194 -396 307 -650 360 -106 23 -327 28 -430 11z m415 -316 c170 -42 369
-161 478 -287 27 -32 71 -91 97 -131 84 -131 143 -144 271 -59 231 153 503
137 694 -39 119 -110 171 -229 176 -398 4 -141 9 -159 49 -195 37 -32 56 -37
181 -46 225 -15 443 -116 606 -279 319 -318 379 -806 146 -1187 -68 -112 -215
-259 -327 -327 -198 -121 -437 -167 -662 -127 -203 35 -350 110 -527 269 -59
52 -66 56 -113 56 -64 0 -90 -15 -164 -90 -216 -224 -543 -290 -828 -170 -81
35 -143 76 -220 146 -105 97 -169 95 -279 -4 -112 -102 -220 -157 -361 -186
-474 -98 -924 292 -894 774 18 289 211 557 473 656 94 35 129 58 148 98 25 53
19 91 -28 196 -72 156 -90 239 -90 415 1 121 5 165 22 228 99 361 390 634 750
702 104 20 290 13 402 -15z"/>
<path d="M1975 3074 c-199 -48 -383 -199 -475 -389 -52 -106 -70 -187 -70
-315 0 -128 18 -209 70 -315 93 -193 277 -342 480 -389 84 -20 256 -20 340 0
87 20 212 82 285 141 118 96 216 250 249 393 20 84 20 256 0 340 -58 250 -270
466 -520 530 -93 24 -268 26 -359 4z m377 -277 c101 -49 177 -126 226 -226 37
-75 37 -77 37 -201 0 -124 0 -126 -37 -201 -24 -49 -57 -96 -94 -133 -37 -37
-84 -70 -133 -94 -75 -37 -77 -37 -201 -37 -124 0 -126 0 -201 37 -101 49
-178 126 -227 227 -37 75 -37 77 -37 201 0 124 0 126 37 201 59 119 151 202
280 250 43 16 74 19 164 17 105 -3 114 -5 186 -41z"/>
<path d="M3307 2576 c-117 -43 -207 -157 -209 -264 -1 -52 23 -89 76 -116 32
-16 44 -17 76 -7 41 12 90 61 90 90 0 53 89 82 130 41 48 -48 22 -98 -221
-425 -53 -72 -104 -146 -114 -164 -30 -60 -5 -135 57 -167 45 -23 472 -23 517
1 43 22 61 53 61 106 0 91 -58 129 -195 129 l-85 0 54 73 c153 207 201 311
193 419 -8 118 -72 214 -179 269 -55 29 -193 37 -251 15z"/>
</g>
</svg>
