<?xml version="1.0" standalone="no"?>
<!DOCTYPE svg PUBLIC "-//W3C//DTD SVG 20010904//EN"
 "http://www.w3.org/TR/2001/REC-SVG-20010904/DTD/svg10.dtd">
<svg version="1.0" xmlns="http://www.w3.org/2000/svg"
 width="512.000000pt" height="512.000000pt" viewBox="0 0 512.000000 512.000000"
 preserveAspectRatio="xMidYMid meet">

<g transform="translate(0.000000,512.000000) scale(0.100000,-0.100000)"
fill="#000000" stroke="none">
<path d="M1284 4154 c-687 -531 -1257 -975 -1266 -986 -38 -43 -26 -67 120
-245 133 -163 138 -168 177 -171 36 -2 49 5 140 77 l100 78 5 -1154 5 -1155
24 -19 c22 -18 47 -19 573 -19 l549 0 24 25 c33 32 33 78 0 110 l-24 25 -496
0 -495 0 2 1157 3 1157 492 381 c270 209 504 392 518 405 24 22 26 31 22 70
-5 44 -4 46 44 82 46 36 49 37 76 23 56 -29 40 -39 392 234 151 117 280 215
286 217 6 3 422 -314 925 -704 l915 -708 3 -1157 2 -1157 -495 0 -496 0 -24
-25 c-33 -32 -33 -78 0 -110 l24 -25 549 0 c526 0 551 1 573 19 l24 19 5 1155
5 1154 100 -78 c91 -72 104 -79 140 -77 39 3 44 8 177 171 149 182 160 206
116 250 -13 12 -211 167 -440 345 l-418 323 0 375 0 375 -25 24 -24 25 -349 0
c-415 0 -394 6 -402 -107 l-5 -69 -424 328 c-321 249 -430 328 -451 328 -21 0
-313 -221 -1276 -966z"/>
<path d="M2465 3591 c-113 -30 -216 -115 -268 -220 l-32 -66 -3 -1080 -2
-1080 -54 -55 c-152 -155 -216 -372 -172 -580 65 -309 348 -526 661 -506 196
12 370 106 480 261 182 255 161 590 -52 816 l-63 66 -2 1079 -3 1079 -32 66
c-39 80 -120 160 -199 196 -44 20 -76 26 -143 29 -47 2 -99 0 -116 -5z m201
-179 c45 -23 84 -63 110 -112 18 -33 19 -86 24 -1135 l5 -1100 76 -75 c89 -88
132 -168 151 -277 53 -315 -237 -600 -552 -544 -257 46 -434 292 -392 544 19
110 62 189 151 276 l76 75 5 1100 c5 1050 6 1103 24 1136 66 124 205 172 322
112z"/>
<path d="M2505 2455 l-25 -24 0 -739 0 -738 -52 -24 c-64 -29 -126 -90 -159
-155 -20 -41 -24 -65 -24 -135 0 -73 4 -93 28 -142 116 -236 458 -236 574 0
24 49 28 69 28 142 0 70 -4 94 -24 135 -33 65 -95 126 -159 155 l-52 24 0 738
0 739 -25 24 c-15 16 -36 25 -55 25 -19 0 -40 -9 -55 -25z"/>
<path d="M1465 3255 c-16 -15 -25 -36 -25 -55 0 -19 9 -40 25 -55 l24 -25 231
0 231 0 24 25 c16 15 25 36 25 55 0 19 -9 40 -25 55 l-24 25 -231 0 -231 0
-24 -25z"/>
<path d="M3145 3255 c-16 -15 -25 -36 -25 -55 0 -19 9 -40 25 -55 l24 -25 231
0 231 0 24 25 c16 15 25 36 25 55 0 19 -9 40 -25 55 l-24 25 -231 0 -231 0
-24 -25z"/>
<path d="M1625 2855 c-16 -15 -25 -36 -25 -55 0 -19 9 -40 25 -55 23 -24 28
-25 175 -25 147 0 152 1 175 25 16 15 25 36 25 55 0 19 -9 40 -25 55 -23 24
-28 25 -175 25 -147 0 -152 -1 -175 -25z"/>
<path d="M3145 2855 c-16 -15 -25 -36 -25 -55 0 -19 9 -40 25 -55 23 -24 28
-25 175 -25 147 0 152 1 175 25 16 15 25 36 25 55 0 19 -9 40 -25 55 -23 24
-28 25 -175 25 -147 0 -152 -1 -175 -25z"/>
<path d="M1465 2455 c-16 -15 -25 -36 -25 -55 0 -19 9 -40 25 -55 l24 -25 231
0 231 0 24 25 c16 15 25 36 25 55 0 19 -9 40 -25 55 l-24 25 -231 0 -231 0
-24 -25z"/>
<path d="M3145 2455 c-16 -15 -25 -36 -25 -55 0 -19 9 -40 25 -55 l24 -25 231
0 231 0 24 25 c16 15 25 36 25 55 0 19 -9 40 -25 55 l-24 25 -231 0 -231 0
-24 -25z"/>
<path d="M1625 2055 c-16 -15 -25 -36 -25 -55 0 -19 9 -40 25 -55 23 -24 28
-25 175 -25 147 0 152 1 175 25 16 15 25 36 25 55 0 19 -9 40 -25 55 -23 24
-28 25 -175 25 -147 0 -152 -1 -175 -25z"/>
<path d="M3145 2055 c-16 -15 -25 -36 -25 -55 0 -19 9 -40 25 -55 23 -24 28
-25 175 -25 147 0 152 1 175 25 16 15 25 36 25 55 0 19 -9 40 -25 55 -23 24
-28 25 -175 25 -147 0 -152 -1 -175 -25z"/>
<path d="M1465 1655 c-16 -15 -25 -36 -25 -55 0 -19 9 -40 25 -55 l24 -25 231
0 231 0 24 25 c16 15 25 36 25 55 0 19 -9 40 -25 55 l-24 25 -231 0 -231 0
-24 -25z"/>
<path d="M3145 1655 c-16 -15 -25 -36 -25 -55 0 -19 9 -40 25 -55 l24 -25 231
0 231 0 24 25 c16 15 25 36 25 55 0 19 -9 40 -25 55 l-24 25 -231 0 -231 0
-24 -25z"/>
<path d="M1625 1255 c-16 -15 -25 -36 -25 -55 0 -19 9 -40 25 -55 23 -24 28
-25 175 -25 147 0 152 1 175 25 16 15 25 36 25 55 0 19 -9 40 -25 55 -23 24
-28 25 -175 25 -147 0 -152 -1 -175 -25z"/>
<path d="M3145 1255 c-16 -15 -25 -36 -25 -55 0 -19 9 -40 25 -55 23 -24 28
-25 175 -25 147 0 152 1 175 25 16 15 25 36 25 55 0 19 -9 40 -25 55 -23 24
-28 25 -175 25 -147 0 -152 -1 -175 -25z"/>
</g>
</svg>
